# xmcd CD database file
#
# Track frame offsets:
#	150
#	19151
#	42648
#	68176
#	88626
#	107422
#	127571
#	145628
#	165224
#	186198
#	206563
#	221103
#	238615
#	259479
#	279572
#
# Disc length: 3934 seconds
#
# Revision: 0
# Processed by: cddbd v1.5.2PL0 Copyright (c) Steve Scherf et al.
# Submitted via: CDex 1.70beta2
#
DISCID=d30f5c0f
DTITLE=Various Artist - 30 Salsas Colombianas Pegaditas Disc 2
DYEAR=2008
DGENRE=Salsa
TTITLE0=Ay Amor Cuando Hablan Las Miradas- Orquesta Guayacan
TTITLE1=Una Aventura- Grupo Niche
TTITLE2=Cuerpo de Guitarra- Fruko
TTITLE3=Si Nos Quedara Poco Tiempo- La Organizacion
TTITLE4=Barranquillero Arrebatao- Fruko
TTITLE5=Somos Los Reyes del Mundo- Alfredo De La Fe Y Fruko
TTITLE6=Tu Volveras- Joe Arroyo
TTITLE7=Me Muero-Daniel Angel
TTITLE8=Han Cogido La Cosa- Grupo Niche
TTITLE9=Tal Para Cual- Joe Arroyo
TTITLE10=Hagamos lo Que Diga el Corazon- Grupo Niche
TTITLE11=Mambo Swing- La Organizacion
TTITLE12=Marcha- Fruko
TTITLE13=Toco por Venir- La Organzacion
TTITLE14=Señor Campanero- La Organzacion
EXTD=YEAR: 2008
EXTT0=
EXTT1=
EXTT2=
EXTT3=
EXTT4=
EXTT5=
EXTT6=
EXTT7=
EXTT8=
EXTT9=
EXTT10=
EXTT11=
EXTT12=
EXTT13=
EXTT14=
PLAYORDER=
